<!-- Generated by IcoMoon.io -->
<svg version="1.1" xmlns="http://www.w3.org/2000/svg" width="640" height="640" viewBox="0 0 640 640">
<title></title>
<g id="icomoon-ignore">
</g>
<path fill="#000" d="M320 12.8c-169.664 0-307.2 137.536-307.2 307.2s137.536 307.2 307.2 307.2 307.2-137.536 307.2-307.2-137.536-307.2-307.2-307.2zM438.144 359.392c0 0 27.168 26.816 33.856 39.264 0.192 0.256 0.288 0.512 0.352 0.64 2.72 4.576 3.36 8.128 2.016 10.784-2.24 4.416-9.92 6.592-12.544 6.784 0 0-46.656 0-48 0-3.328 0-10.304-0.864-18.752-6.688-6.496-4.544-12.896-12-19.136-19.264-9.312-10.816-17.376-20.16-25.504-20.16-1.024 0-2.080 0.16-3.040 0.48-6.144 1.984-14.016 10.752-14.016 34.112 0 7.296-5.76 11.488-9.824 11.488 0 0-20.96 0-21.984 0-7.488 0-46.496-2.624-81.056-39.072-42.304-44.64-80.384-134.176-80.704-135.008-2.4-5.792 2.56-8.896 7.968-8.896h48.48c6.464 0 8.576 3.936 10.048 7.424 1.728 4.064 8.064 20.224 18.464 38.4 16.864 29.632 27.2 41.664 35.488 41.664 1.568 0 3.008-0.416 4.448-1.152 10.816-6.016 8.8-44.576 8.32-52.576 0-1.504-0.032-17.248-5.568-24.8-3.968-5.472-10.72-7.552-14.816-8.32 1.056-1.568 3.424-3.968 6.368-5.408 7.424-3.712 20.8-4.256 34.080-4.256h7.392c14.4 0.192 18.112 1.12 23.328 2.432 10.56 2.528 10.784 9.344 9.856 32.672-0.288 6.624-0.576 14.112-0.576 22.944 0 1.92-0.096 3.968-0.096 6.144-0.32 11.872-0.704 25.344 7.68 30.88 1.088 0.672 2.336 1.056 3.648 1.056 2.912 0 11.68 0 35.424-40.736 10.4-17.984 18.464-39.2 19.040-40.768 0.48-0.832 1.888-3.392 3.552-4.384 1.312-0.768 3.072-0.928 3.968-0.928h56.992c6.208 0 10.464 0.928 11.264 3.328 1.408 3.808-0.256 15.424-26.272 50.656-4.384 5.824-8.256 10.912-11.616 15.328-23.584 30.912-23.584 32.48 1.472 55.936z"></path>
</svg>
